<svg width="61" height="60" viewBox="0 0 61 60" fill="none" xmlns="http://www.w3.org/2000/svg">
<g clip-path="url(#clip0_115_3823)">
<path d="M57.4525 21.2612C56.6608 18.8096 56.9983 15.1296 54.9405 12.2881C52.8665 9.42431 49.2594 8.61033 47.2225 7.12064C45.2071 5.64666 43.3321 2.43912 39.942 1.33287C36.6475 0.257791 33.2786 1.71666 30.6665 1.71666C28.0547 1.71666 24.6861 0.257439 21.391 1.33275C18.0015 2.43877 16.1249 5.64701 14.1108 7.12029C12.0762 8.60822 8.46639 9.42443 6.39275 12.2878C4.3367 15.1269 4.6708 18.8154 3.88049 21.2611C3.12838 23.5888 0.666504 26.3824 0.666504 30.0002C0.666504 33.6203 3.12557 36.4031 3.88049 38.7392C4.67221 41.1908 4.33471 44.8708 6.39252 47.7123C8.46639 50.5762 12.0734 51.3901 14.1105 52.8799C16.1255 54.3536 18.0009 57.5614 21.391 58.6676C24.6833 59.7419 28.0574 58.2838 30.6665 58.2838C33.2719 58.2838 36.654 59.7404 39.942 58.6677C43.3317 57.5617 45.207 54.3541 47.2222 52.8801C49.2568 51.3922 52.8666 50.576 54.9403 47.7126C56.9964 44.8734 56.6621 41.1853 57.4525 38.7394C58.2046 36.4115 60.6665 33.6179 60.6665 30.0002C60.6665 26.3804 58.208 23.5984 57.4525 21.2612ZM52.9922 37.2979C52.0694 40.1544 52.3112 43.3512 51.144 44.9629C49.9611 46.5962 46.8534 47.3422 44.4554 49.0963C42.0836 50.8308 40.4213 53.5803 38.4879 54.2111C36.6589 54.8081 33.6781 53.596 30.6666 53.596C27.6331 53.596 24.683 54.8107 22.8452 54.2111C20.9121 53.5803 19.2521 50.8326 16.8778 49.0962C14.4939 47.3528 11.3685 46.5914 10.189 44.9627C9.02561 43.3563 9.25822 40.1374 8.341 37.2981C7.44193 34.5162 5.354 32.1074 5.354 30.0002C5.354 27.891 7.44006 25.4905 8.34076 22.7025C9.26361 19.8461 9.02186 16.6492 10.189 15.0375C11.3712 13.4053 14.4813 12.6568 16.8778 10.9042C19.257 9.16404 20.9089 6.42103 22.8449 5.78928C24.6725 5.19303 27.663 6.40439 30.6664 6.40439C33.7054 6.40439 36.6481 5.18892 38.4878 5.78928C40.4207 6.41998 42.0821 9.16873 44.4554 10.9043C46.8388 12.6477 49.9645 13.409 51.144 15.0376C52.3076 16.6444 52.0737 19.86 52.992 22.7022V22.7024C53.8911 25.4843 55.979 27.8931 55.979 30.0002C55.979 32.1095 53.8929 34.5099 52.9922 37.2979ZM41.4645 22.4774C42.3799 23.3927 42.3799 24.8767 41.4645 25.7919L29.7333 37.5231C28.818 38.4384 27.3339 38.4383 26.4187 37.5231L19.8686 30.973C18.9533 30.0576 18.9531 28.5737 19.8685 27.6585C20.7838 26.7432 22.268 26.7431 23.183 27.6585L28.076 32.5513L38.1497 22.4775C39.0651 21.5621 40.5492 21.5621 41.4645 22.4774Z" fill="#242424"/>
</g>
<defs>
<clipPath id="clip0_115_3823">
<rect width="60" height="60" fill="white" transform="translate(0.666504)"/>
</clipPath>
</defs>
</svg>
