<svg width="61" height="60" viewBox="0 0 61 60" fill="none" xmlns="http://www.w3.org/2000/svg">
<g clip-path="url(#clip0_115_3831)">
<path d="M55.6814 31.102V3.7797C55.6814 2.80495 54.8912 2.01471 53.9164 2.01471H6.62861C5.65386 2.01471 4.86362 2.80495 4.86362 3.7797V33.2801C4.01218 33.4041 3.17982 33.7346 2.44346 34.2813C0.122148 35.9273 -0.426882 39.611 1.51755 41.8828L9.46742 51.5204C14.3884 57.2798 19.616 57.9855 27.3874 57.9855C34.0563 57.9855 37.0378 58.0149 42.85 56.6906L48.5095 55.3369C49.4271 56.6184 50.884 57.4486 52.5218 57.4486H55.3097C58.0798 57.4486 60.3335 55.0744 60.3335 52.1562V36.3785C60.3336 33.592 58.2784 31.3032 55.6814 31.102ZM47.7482 34.7327L45.3965 33.5382C41.5299 31.5865 37.0594 31.5143 33.1317 33.3403C32.0601 33.7618 29.7229 35.1759 28.5106 35.1286H20.3502C17.6434 35.1286 15.4412 37.3307 15.4412 40.0376V41.3248C15.426 41.3088 15.4101 41.2936 15.3952 41.2774L9.56778 34.952C9.21514 34.5692 8.81896 34.249 8.39371 33.992V16.481H22.8376V22.951C22.8376 23.9258 23.6278 24.716 24.6026 24.716H35.7398C36.7145 24.716 37.5047 23.9258 37.5047 22.951V16.481H52.1516V31.1019C50.0894 31.2612 48.3698 32.7365 47.7482 34.7327ZM26.3674 16.481H33.9747V21.186H26.3674V16.481ZM52.1515 12.9511H37.5047V5.54469H52.1516V12.9511H52.1515ZM33.9748 5.54469V12.9512H26.3675V5.54469H33.9748ZM22.8374 5.54469V12.9512H8.3936V5.54469H22.8374ZM42.0308 53.2568C36.6617 54.4866 33.4281 54.4368 27.4507 54.4368C20.1554 54.4368 16.6304 54.3189 12.1907 49.2741L4.24081 39.6364C2.858 37.8358 5.36264 35.7101 6.9716 37.3436L12.799 43.6691C14.3391 45.2941 16.2772 46.1885 18.666 46.2411H34.8224C35.7972 46.2411 36.5874 45.4509 36.5874 44.4761C36.5874 43.5014 35.7972 42.7111 34.8224 42.7111H18.9711V40.0374C18.9711 39.2771 19.5896 38.6584 20.3501 38.6584H28.5105C30.3489 38.79 33.0024 37.255 34.6198 36.5411C37.5615 35.1733 40.9098 35.2275 43.8019 36.6872L47.4982 38.5647V51.949L42.0308 53.2568ZM56.8036 52.1561C56.8036 53.1279 56.1335 53.9185 55.3098 53.9185H52.5219C51.6982 53.9185 51.0282 53.1279 51.0282 52.1561V36.3785C51.0282 35.4067 51.6983 34.616 52.5219 34.616H55.3098C56.1335 34.616 56.8036 35.4065 56.8036 36.3785V52.1561Z" fill="#242424"/>
</g>
<defs>
<clipPath id="clip0_115_3831">
<rect width="60" height="60" fill="white" transform="translate(0.333496)"/>
</clipPath>
</defs>
</svg>
